<?xml version="1.0" standalone="no"?>
<svg viewBox="0 0 1024 768" version="1.1" xmlns="http://www.w3.org/2000/svg" xmlns:xlink="http://www.w3.org/1999/xlink" stroke-linecap="round" stroke-linejoin="round" fill-rule="evenodd" xml:space="preserve" style="background-color:rgb(0,0,0);" >
<path d="M811.137,536.702 759.097,528.459 712.152,504.539 674.895,467.283 650.975,420.337 642.733,368.298 642.733,368.298 650.975,316.258 674.895,269.312 712.152,232.056 759.097,208.136 811.137,199.894 1013.96,199.894 925.591,338.337 811.137,338.337 811.137,338.337 789.951,347.112 781.176,368.298 789.951,389.483 811.137,398.259 925.591,398.259 969.776,398.259 881.406,536.702 837.22,536.702 811.137,536.702Z " />
<path d="M641.429,619.722 969.776,619.722 969.776,758.165 553.059,758.165 641.429,619.722Z " />
<path d="M393.863,9.83218 393.863,502.193 393.863,502.193 382.778,542.141 357.381,574.907 321.459,595.602 280.374,601.139 280.374,601.139 236.345,591.609 200.126,564.823 200.126,564.823 175.118,523.373 166.542,475.73 175.524,428.161 175.524,428.161 198.096,387.886 235.239,360.463 280.374,350.749 348.04,350.749 348.04,193.718 280.377,193.302 280.377,193.302 209.103,204.377 143.111,233.489 86.8805,278.663 44.23,336.831 18.0554,404.043 10.134,475.735 10.134,475.735 17.7306,547.571 43.7551,614.957 86.415,673.252 142.772,718.441 208.945,747.411 280.377,758.168 280.377,758.168 344.868,750.711 405.956,728.736 460.418,693.4 460.418,693.4 498.515,654.381 527.133,607.96 544.881,556.395 550.894,502.193 550.894,9.83218 393.863,9.83218Z " />
</svg>
